<svg
  width="512"
  height="512"
  viewBox="0 0 372 372"
  fill="none"
  xmlns="http://www.w3.org/2000/svg"
>
  <g transform="translate(8 0)">
    <path
      d="M38.7288 231.766C31.6989 224.737 31.6981 213.34 38.727 206.31L165.29 79.7289C172.319 72.6989 183.716 72.6981 190.746 79.7271L317.327 206.29C324.357 213.319 324.358 224.716 317.329 231.746L190.766 358.327C183.737 365.357 172.34 365.358 165.31 358.329L38.7288 231.766Z"
      fill="#F5F5F5"
    />
    <mask id="block-light-outline" fill="white">
      <path d="M18.4358 196.408C8.25398 186.283 8.20824 169.821 18.3336 159.639L158.754 18.4359C168.879 8.25407 185.342 8.20833 195.523 18.3337L336.726 158.754C346.908 168.879 346.954 185.342 336.829 195.523L196.408 336.727C186.283 346.908 169.821 346.954 159.639 336.829L18.4358 196.408Z" />
    </mask>
    <path
      d="M18.4358 196.408C8.25398 186.283 8.20824 169.821 18.3336 159.639L158.754 18.4359C168.879 8.25407 185.342 8.20833 195.523 18.3337L336.726 158.754C346.908 168.879 346.954 185.342 336.829 195.523L196.408 336.727C186.283 346.908 169.821 346.954 159.639 336.829L18.4358 196.408Z"
      fill="#F5F5F5"
    />
    <path
      d="M18.3336 159.639L24.0062 165.28L164.427 24.077L158.754 18.4359L153.081 12.7948L12.6611 153.998L18.3336 159.639ZM195.523 18.3337L189.882 24.0063L331.085 164.427L336.726 158.754L342.368 153.082L201.165 12.6612L195.523 18.3337ZM336.829 195.523L331.156 189.882L190.736 331.085L196.408 336.727L202.081 342.368L342.501 201.165L336.829 195.523ZM159.639 336.829L165.28 331.156L24.0769 190.736L18.4358 196.408L12.7947 202.081L153.998 342.501L159.639 336.829ZM196.408 336.727L190.736 331.085C183.726 338.134 172.329 338.166 165.28 331.156L159.639 336.829L153.998 342.501C167.312 355.742 188.84 355.682 202.081 342.368L196.408 336.727ZM336.726 158.754L331.085 164.427C338.134 171.437 338.166 182.833 331.156 189.882L336.829 195.523L342.501 201.165C355.742 187.85 355.682 166.322 342.368 153.082L336.726 158.754ZM158.754 18.4359L164.427 24.077C171.436 17.0281 182.833 16.9964 189.882 24.0063L195.523 18.3337L201.165 12.6612C187.85 -0.57972 166.322 -0.519906 153.081 12.7948L158.754 18.4359ZM18.3336 159.639L12.6611 153.998C-0.579812 167.312 -0.520002 188.84 12.7947 202.081L18.4358 196.408L24.0769 190.736C17.028 183.726 16.9963 172.329 24.0062 165.28L18.3336 159.639Z"
      fill="#171717"
      mask="url(#block-light-outline)"
    />
    <path
      d="M112 253.6L256.033 108.764L325.49 177.837L181.457 322.672L112 253.6Z"
      fill="#171717"
    />
    <path
      d="M136.83 78.7751L181.822 33.5328L251.563 102.888L206.571 148.13L136.83 78.7751Z"
      fill="#171717"
    />
  </g>
</svg>
