<svg xmlns="http://www.w3.org/2000/svg" width="1400" height="1400" viewBox="0 0 1400 1400" role="img" aria-labelledby="title desc">
  <title id="title">noise canceling earbuds hero</title>
  <desc id="desc">Generated catalog illustration for a fictional ecommerce product.</desc>
  <defs>
    <linearGradient id="bg" x1="0" y1="0" x2="1" y2="1">
      <stop offset="0" stop-color="#fff8e8"/>
      <stop offset="1" stop-color="#ffffff"/>
    </linearGradient>
    <linearGradient id="product" x1="0" y1="0" x2="1" y2="1">
      <stop offset="0" stop-color="#ecf39e"/>
      <stop offset="1" stop-color="#ecf39e"/>
    </linearGradient>
    <filter id="shadow" x="-20%" y="-20%" width="140%" height="140%">
      <feDropShadow dx="0" dy="34" stdDeviation="28" flood-color="#0f172a" flood-opacity="0.18"/>
    </filter>
  </defs>
  <rect width="1400" height="1400" fill="url(#bg)"/>
  <circle cx="1088" cy="214" r="130" fill="#ecf39e" opacity="0.14"/>
  <circle cx="260" cy="1132" r="184" fill="#ecf39e" opacity="0.1"/>
  <rect x="150" y="150" width="1100" height="1100" rx="54" fill="#ffffff" opacity="0.78"/>
  <g filter="url(#shadow)">
    <rect x="430" y="340" width="540" height="620" rx="72" fill="url(#product)"/>
    <rect x="502" y="416" width="396" height="78" rx="32" fill="#ffffff" opacity="0.42"/>
    <rect x="514" y="552" width="372" height="268" rx="44" fill="#ffffff" opacity="0.2"/>
    <path d="M484 924 C596 974 804 974 916 924" fill="none" stroke="#ffffff" stroke-width="28" stroke-linecap="round" opacity="0.58"/>
  </g>
  <g fill="#111827">
    <text x="190" y="228" font-family="Inter, Arial, sans-serif" font-size="42" font-weight="700">noise canceling earbuds hero</text>
    <text x="190" y="282" font-family="Inter, Arial, sans-serif" font-size="26" opacity="0.65">Hero product view - fictional retail media</text>
  </g>
  <g opacity="0.52" fill="none" stroke="#64748b" stroke-width="3">
    <path d="M1056 1100 h160"/>
    <path d="M1056 1138 h116"/>
    <path d="M1056 1176 h138"/>
  </g>
</svg>